<?xml version="1.0" standalone="no"?>
<!DOCTYPE svg PUBLIC "-//W3C//DTD SVG 20010904//EN"
 "http://www.w3.org/TR/2001/REC-SVG-20010904/DTD/svg10.dtd">
<svg version="1.0" xmlns="http://www.w3.org/2000/svg"
 width="666.000000pt" height="375.000000pt" viewBox="0 0 666.000000 375.000000"
 preserveAspectRatio="xMidYMid meet">

<g transform="translate(0.000000,375.000000) scale(0.100000,-0.100000)"
fill="#000000" stroke="none">
<path d="M3496 2084 c-38 -37 -9 -77 51 -72 33 3 38 6 41 31 2 16 -2 35 -9 43
-15 19 -64 18 -83 -2z"/>
<path d="M5488 2083 c22 -15 22 -19 22 -230 0 -206 -1 -215 -20 -220 -43 -11
-16 -19 63 -17 45 1 84 3 87 3 2 1 -6 8 -18 17 -20 14 -22 23 -22 113 0 115
12 159 46 167 51 13 54 5 54 -141 0 -111 -3 -137 -15 -141 -33 -13 -11 -20 65
-19 44 0 80 1 80 3 0 1 -9 11 -20 22 -18 18 -20 33 -20 143 0 113 -2 126 -21
143 -30 27 -99 25 -138 -4 l-31 -23 0 101 0 100 -67 -1 c-65 0 -67 -1 -45 -16z"/>
<path d="M6186 2084 c-19 -18 -20 -28 -6 -55 8 -14 21 -19 48 -19 43 0 62 14
62 47 0 40 -73 59 -104 27z"/>
<path d="M367 2048 c30 -15 33 -32 33 -216 0 -163 -7 -202 -35 -202 -8 0 -15
-3 -15 -7 0 -5 43 -8 95 -8 90 0 119 6 75 18 -19 5 -20 14 -20 205 0 196 0
199 23 210 17 8 1 11 -78 11 -77 0 -95 -3 -78 -11z"/>
<path d="M2093 2044 l27 -15 -2 -196 -3 -197 -25 -6 c-47 -11 -5 -17 121 -16
119 1 129 3 185 31 51 26 63 38 87 84 52 103 28 235 -52 288 -52 35 -96 43
-236 43 -121 -1 -128 -2 -102 -16z m252 -18 c45 -30 59 -72 59 -181 1 -120
-13 -169 -58 -196 -39 -24 -111 -26 -120 -3 -11 28 -7 364 5 386 9 17 18 19
50 15 22 -3 51 -12 64 -21z"/>
<path d="M2726 2048 c29 -14 34 -45 34 -208 0 -161 -6 -201 -32 -207 -41 -11
-13 -18 77 -19 52 0 95 3 95 8 0 4 -7 8 -15 8 -24 0 -35 35 -35 115 0 81 7 93
53 81 28 -7 41 -32 57 -112 18 -88 31 -104 86 -104 45 0 84 13 84 29 0 5 -11
6 -24 4 -26 -5 -26 -6 -46 85 -12 52 -45 92 -76 92 -26 0 -13 15 29 35 33 16
45 29 56 61 19 55 2 91 -59 122 -39 20 -59 22 -175 21 -97 0 -125 -3 -109 -11z
m219 -23 c20 -20 25 -34 25 -78 0 -74 -25 -107 -82 -107 l-40 0 4 95 c2 71 7
98 18 105 25 16 50 11 75 -15z"/>
<path d="M5333 2026 c-41 -9 -43 -10 -43 -47 0 -33 -3 -38 -27 -42 l-28 -4 28
-2 27 -1 0 -134 c0 -120 2 -136 21 -160 28 -35 95 -37 127 -3 27 29 29 47 3
23 -11 -10 -28 -16 -38 -14 -16 3 -18 17 -21 145 l-3 142 38 4 38 4 -37 1
c-37 2 -37 2 -40 50 l-3 47 -42 -9z"/>
<path d="M652 1939 c-24 -7 -37 -19 -48 -44 -20 -48 -6 -76 71 -149 36 -34 65
-69 65 -78 0 -22 -27 -48 -49 -48 -31 0 -70 39 -77 75 -10 55 -24 41 -24 -25
0 -54 12 -79 22 -48 4 10 10 10 32 0 15 -6 49 -12 75 -12 63 0 111 40 111 90
0 33 -38 77 -124 147 -20 17 -27 30 -24 50 3 25 7 28 43 28 37 0 41 -3 61 -44
l22 -45 4 50 c5 55 0 75 -14 51 -7 -14 -12 -14 -43 -1 -39 16 -56 16 -103 3z"/>
<path d="M1418 1932 c-16 -9 -28 -20 -28 -25 0 -4 10 -1 22 7 28 20 44 21 29
2 -7 -8 -11 -27 -9 -43 2 -22 9 -29 31 -31 16 -2 35 2 43 9 22 18 17 65 -8 83
-28 20 -46 20 -80 -2z"/>
<path d="M3216 1936 c-47 -18 -57 -31 -54 -71 3 -25 8 -31 31 -33 52 -6 76 41
40 80 -15 17 -15 18 8 19 37 2 53 -2 61 -14 4 -7 6 -66 5 -131 -2 -101 -5
-121 -19 -130 -26 -16 -52 4 -56 43 -3 26 3 38 34 67 43 39 39 41 -31 15 -67
-25 -95 -52 -95 -91 0 -69 86 -104 144 -59 l27 22 15 -22 c18 -25 70 -28 100
-6 19 14 18 14 -3 15 -23 0 -23 2 -23 128 0 122 -1 130 -23 151 -31 28 -108
36 -161 17z"/>
<path d="M3736 1940 c-54 -17 -76 -51 -60 -94 6 -16 39 -21 68 -10 20 8 21 52
1 74 -15 16 -14 18 8 22 13 3 34 1 46 -4 20 -7 22 -14 19 -65 l-3 -58 -55 -20
c-30 -11 -62 -24 -71 -30 -44 -27 -47 -101 -6 -130 30 -21 80 -19 111 6 l27
22 15 -22 c11 -15 26 -21 53 -21 44 0 75 24 41 33 -19 5 -20 13 -20 131 0 114
-2 127 -21 144 -32 30 -94 39 -153 22z m73 -276 c-18 -22 -48 -17 -60 10 -17
36 -4 71 33 95 l33 20 3 -55 c2 -32 -2 -62 -9 -70z"/>
<path d="M4160 1939 c-13 -6 -33 -17 -42 -26 -17 -15 -18 -15 -18 5 0 20 -5
22 -67 22 -64 0 -66 -1 -45 -16 21 -14 22 -22 22 -150 0 -130 -1 -135 -22
-144 -29 -11 -28 -12 65 -13 70 -2 97 5 65 16 -10 3 -13 37 -13 124 0 105 3
124 19 142 23 25 61 28 70 5 3 -9 6 -72 6 -140 0 -102 -3 -126 -15 -130 -33
-13 -11 -19 62 -17 93 1 94 2 66 13 -22 9 -23 14 -23 130 0 107 2 122 20 140
25 25 56 26 70 1 5 -11 10 -71 10 -135 0 -88 -3 -118 -15 -130 -8 -8 -15 -16
-15 -18 0 -2 36 -3 80 -3 77 -1 102 7 60 18 -19 5 -20 14 -21 124 -1 65 -4
129 -8 143 -15 55 -115 63 -164 14 -24 -23 -25 -24 -30 -4 -9 34 -68 48 -117
29z"/>
<path d="M4627 1938 c-49 -13 -74 -49 -59 -83 16 -35 68 -35 84 0 9 21 8 28
-7 45 -21 24 -16 33 20 33 36 0 46 -14 52 -66 5 -38 2 -47 -18 -61 -13 -9 -40
-21 -60 -26 -60 -16 -89 -46 -89 -89 0 -72 84 -109 136 -60 l22 21 21 -21 c25
-25 78 -28 107 -6 19 14 18 14 -3 15 -22 0 -23 3 -23 98 0 129 -8 170 -35 188
-29 19 -102 25 -148 12z m93 -197 c0 -41 -5 -65 -16 -75 -31 -31 -67 -12 -67
35 0 26 8 40 38 66 21 18 40 33 42 33 1 0 3 -27 3 -59z"/>
<path d="M5065 1943 c-11 -3 -30 -14 -42 -26 l-23 -20 0 21 c0 20 -5 22 -67
22 l-67 0 22 -20 c20 -19 22 -30 22 -145 0 -114 -2 -126 -20 -137 -11 -7 -20
-15 -20 -18 0 -3 36 -5 80 -5 76 0 98 6 65 19 -12 4 -15 28 -15 126 0 107 2
122 20 140 11 11 28 20 38 20 37 0 42 -20 42 -152 0 -105 -3 -130 -15 -134
-33 -13 -11 -19 65 -19 44 0 80 3 80 7 0 5 -6 8 -14 8 -22 0 -26 24 -26 150 0
97 -3 121 -17 139 -18 22 -71 34 -108 24z"/>
<path d="M6028 1934 c-16 -8 -28 -19 -28 -25 0 -6 10 -3 22 5 28 20 44 21 29
2 -7 -8 -11 -27 -9 -43 2 -22 9 -29 31 -31 16 -2 35 2 43 9 22 18 17 65 -8 83
-28 20 -45 20 -80 0z"/>
<path d="M877 1922 c20 -16 22 -27 25 -143 3 -108 6 -130 22 -148 26 -29 103
-29 140 0 l26 20 0 -20 c0 -19 6 -20 65 -19 36 1 65 5 65 8 0 3 -9 11 -20 18
-19 11 -20 23 -20 157 l0 145 -67 -1 c-65 0 -67 -1 -45 -16 21 -15 22 -22 22
-133 0 -99 -3 -119 -17 -132 -29 -24 -51 -28 -68 -12 -12 12 -15 43 -15 155
l0 139 -67 0 c-66 0 -67 -1 -46 -18z"/>
<path d="M1268 1920 c20 -19 22 -30 22 -145 0 -114 -2 -126 -20 -137 -11 -7
-20 -15 -20 -18 0 -3 43 -5 95 -5 52 -1 95 3 95 7 0 4 -8 8 -19 8 -36 0 -43
24 -41 147 1 65 1 128 1 141 -1 21 -5 22 -68 22 l-67 0 22 -20z"/>
<path d="M1552 1923 c12 -13 17 -50 20 -140 6 -153 16 -173 87 -173 33 0 56 6
74 20 32 25 36 25 30 0 -5 -19 -1 -20 61 -18 64 3 81 10 51 22 -12 4 -15 31
-15 156 l0 150 -72 -1 c-69 0 -72 -1 -50 -16 21 -15 22 -22 22 -133 0 -116 -1
-119 -26 -139 -20 -16 -31 -18 -45 -10 -17 9 -19 23 -20 147 -1 75 -1 140 0
145 0 4 -29 7 -66 7 -62 0 -65 -1 -51 -17z"/>
<path d="M3478 1923 c21 -15 22 -21 22 -182 0 -91 -3 -177 -7 -190 -3 -13 -19
-29 -37 -37 l-31 -13 36 -1 c48 0 101 36 116 80 7 21 12 99 12 198 l1 162 -67
-1 c-65 0 -67 -1 -45 -16z"/>
<path d="M5875 1924 c18 -13 20 -29 23 -139 3 -114 2 -125 -17 -144 -12 -12
-21 -22 -21 -24 0 -6 180 0 186 6 4 4 -2 7 -13 7 -38 0 -45 22 -43 147 1 65 1
128 1 141 -1 21 -5 22 -68 22 -63 -1 -66 -2 -48 -16z"/>
<path d="M6168 1920 c20 -19 22 -30 22 -145 0 -114 -2 -126 -20 -137 -11 -7
-20 -15 -20 -18 0 -3 38 -5 85 -5 47 0 85 2 85 5 0 3 -9 11 -20 18 -19 11 -20
23 -20 157 l0 145 -67 0 -67 0 22 -20z"/>
</g>
</svg>
